<svg width="554" height="165" viewBox="0 0 554 165" fill="none" xmlns="http://www.w3.org/2000/svg">
<g filter="url(#filter0_d_1_22955)">
<path d="M75.5026 16H93.2058V146.56H75.5026V138.75C68.618 145.339 60.7499 148.756 52.1441 148.756C43.5384 148.756 33.2115 145.095 26.3269 137.53C19.4423 129.965 16 120.204 16 108.734C16 97.2642 19.4423 87.9908 26.3269 80.6697C32.9656 73.1046 41.5714 69.2 51.8983 69.2C62.2252 69.2 68.618 72.8606 75.7485 79.9376V16H75.5026ZM33.9491 108.734C33.9491 116.055 35.9162 121.912 39.8502 126.305C43.7843 130.941 48.9477 133.138 54.8488 133.138C60.7499 133.138 66.651 130.941 70.585 126.549C74.5191 121.912 76.4861 116.055 76.4861 108.978C76.4861 101.901 74.5191 96.044 70.585 91.4073C66.651 87.0147 61.4875 84.5743 55.0947 84.5743C48.7018 84.5743 44.0301 86.7706 40.0961 91.4073C36.162 96.044 34.195 101.657 34.195 108.49L33.9491 108.734Z" fill="white"/>
<path d="M124.924 71.3963V146.804H107.467V71.3963H124.924Z" fill="white"/>
<path d="M183.197 84.0862L168.691 91.6514C166.478 87.0147 163.527 84.5743 160.085 84.5743C156.642 84.5743 157.134 85.0624 155.905 86.0385C154.675 87.0147 154.184 88.4789 154.184 90.1872C154.184 93.1156 157.626 96.044 164.265 98.7284C173.608 102.633 179.755 106.294 182.951 109.71C186.148 113.127 187.869 117.519 187.869 123.132C187.869 128.745 185.164 136.554 179.755 141.435C174.592 146.072 168.199 148.512 160.822 148.512C148.037 148.512 139.185 142.411 133.776 129.965L148.774 123.132C150.741 126.793 152.463 128.989 153.446 129.965C155.659 131.917 158.118 132.894 161.068 132.894C166.969 132.894 169.92 130.209 169.92 124.84C169.92 119.472 167.707 118.739 163.035 116.299C161.314 115.323 159.593 114.591 157.626 113.859C155.659 113.127 154.184 112.15 152.217 111.418C147.053 108.978 143.611 106.538 141.398 104.097C138.693 100.925 137.464 97.0202 137.464 91.8954C137.464 86.7706 139.677 79.9376 144.349 75.545C149.02 71.1523 154.675 69.2 161.068 69.2C170.903 69.2 178.034 74.0807 182.706 84.0862H183.197Z" fill="white"/>
<path d="M213.932 87.5028V146.56H196.475V87.5028H189.098V71.1523H196.475V43.5761H213.932V71.1523H227.455V87.5028H213.932Z" fill="white"/>
<path d="M288.925 71.3963H306.628V146.804H288.925V138.994C281.795 145.583 273.927 149 265.567 149C257.207 149 246.388 145.339 239.504 137.774C232.619 130.209 229.177 120.448 229.177 108.978C229.177 97.5083 232.619 88.2349 239.504 80.6697C246.388 73.1046 254.748 69.444 265.075 69.444C275.402 69.444 281.795 73.1046 288.925 80.1816V71.3963ZM247.372 108.734C247.372 116.055 249.339 121.912 253.273 126.305C257.207 130.941 262.37 133.138 268.271 133.138C274.172 133.138 280.073 130.941 284.008 126.549C287.942 121.912 289.909 116.055 289.909 108.978C289.909 101.901 287.942 96.044 284.008 91.4073C280.073 87.0147 274.91 84.5743 268.517 84.5743C262.124 84.5743 257.453 86.7706 253.519 91.4073C249.585 96.044 247.618 101.657 247.618 108.49L247.372 108.734Z" fill="white"/>
<path d="M338.347 71.3963V78.4734C344.494 72.3725 351.378 69.444 359 69.444C366.623 69.444 374.737 72.1284 379.654 77.7413C383.834 82.378 386.047 90.1872 386.047 100.681V146.804H368.344V104.829C368.344 97.5083 367.36 92.3835 365.147 89.455C363.18 86.5266 359.492 85.0624 354.083 85.0624C348.674 85.0624 344.248 87.0147 341.789 90.6752C339.33 94.3358 338.101 100.925 338.101 110.442V146.804H320.398V71.3963H338.347Z" fill="white"/>
<path d="M459.073 74.5688V97.7523C455.139 92.8716 451.451 89.6991 448.254 87.7468C445.058 85.7945 441.37 85.0624 437.19 85.0624C430.551 85.0624 425.142 87.2587 420.716 91.8954C416.29 96.5321 414.077 102.145 414.077 109.222C414.077 116.299 416.29 122.156 420.47 126.549C424.65 131.185 430.059 133.382 436.698 133.382C443.337 133.382 444.566 132.406 447.763 130.697C450.959 128.989 454.647 125.572 458.827 120.448V143.387C451.697 147.048 444.566 149 437.436 149C425.634 149 415.798 145.339 407.93 137.774C400.062 130.209 396.128 120.692 396.128 109.466C396.128 98.2404 400.062 88.7229 408.176 80.9138C416.29 73.1046 425.879 69.2 437.682 69.2C449.484 69.2 452.188 70.9083 458.827 74.5688H459.073Z" fill="white"/>
<path d="M537.262 113.127H482.923C483.415 119.228 485.382 124.352 489.07 128.013C492.758 131.673 497.184 133.382 502.839 133.382C508.495 133.382 510.707 132.406 513.658 130.209C516.363 128.257 519.559 124.352 523.247 118.739L538 127.037C535.787 130.941 533.328 134.114 530.87 137.042C528.411 139.971 525.706 142.167 522.756 143.875C519.805 145.583 516.609 147.048 513.412 147.78C510.216 148.512 506.282 149 502.348 149C491.037 149 481.94 145.339 475.055 138.262C468.171 130.941 464.728 121.424 464.728 109.222C464.728 97.0202 468.171 87.7468 474.809 80.1816C481.448 72.8605 490.3 69.2 501.364 69.2C512.429 69.2 521.28 72.6165 527.919 79.6936C534.312 86.7706 537.508 96.5321 537.508 108.734V112.883L537.262 113.127ZM519.313 98.9725C516.854 89.6991 510.953 85.0624 501.61 85.0624C492.267 85.0624 495.709 86.0385 495.709 86.0385C493.988 86.7706 492.021 87.5028 490.545 88.7229C489.07 89.9431 487.595 91.4073 486.611 93.1156C485.628 94.8239 484.644 96.7761 484.153 98.9725H519.313Z" fill="white"/>
<path d="M122.957 30.1541C120.007 30.1541 117.548 31.6183 116.073 33.8147C114.597 31.6183 112.138 30.1541 109.188 30.1541C104.762 30.1541 101.074 33.8147 101.074 38.2073C101.074 46.5046 116.073 56.9982 116.073 56.9982C116.073 56.9982 131.071 46.5046 131.071 38.2073C131.071 29.9101 127.383 30.1541 122.957 30.1541Z" fill="#FFAC0B"/>
</g>
<defs>
<filter id="filter0_d_1_22955" x="0" y="0" width="554" height="165" filterUnits="userSpaceOnUse" color-interpolation-filters="sRGB">
<feFlood flood-opacity="0" result="BackgroundImageFix"/>
<feColorMatrix in="SourceAlpha" type="matrix" values="0 0 0 0 0 0 0 0 0 0 0 0 0 0 0 0 0 0 127 0" result="hardAlpha"/>
<feOffset/>
<feGaussianBlur stdDeviation="8"/>
<feComposite in2="hardAlpha" operator="out"/>
<feColorMatrix type="matrix" values="0 0 0 0 0 0 0 0 0 0 0 0 0 0 0 0 0 0 0.25 0"/>
<feBlend mode="normal" in2="BackgroundImageFix" result="effect1_dropShadow_1_22955"/>
<feBlend mode="normal" in="SourceGraphic" in2="effect1_dropShadow_1_22955" result="shape"/>
</filter>
</defs>
</svg>
